<svg xmlns="http://www.w3.org/2000/svg" version="1.1" xmlns:xlink="http://www.w3.org/1999/xlink" xmlns:svgjs="http://svgjs.com/svgjs" width="1440" height="560" preserveAspectRatio="none" viewBox="0 0 1440 560"><g mask="url(&quot;#SvgjsMask1809&quot;)" fill="none"><rect width="84" height="84" clip-path="url(&quot;#SvgjsClipPath1810&quot;)" x="785.94" y="467.8" fill="url(#SvgjsPattern1811)" transform="rotate(110.46, 827.94, 509.8)"></rect><circle r="92.98103567293255" cx="998.08" cy="372.58" stroke="rgba(255, 255, 255, 1)" stroke-width="2.48" stroke-dasharray="3, 2"></circle><rect width="69.8" height="69.8" clip-path="url(&quot;#SvgjsClipPath1812&quot;)" x="1103" y="379.58" fill="url(#SvgjsPattern1813)" transform="rotate(290.17, 1137.9, 414.48)"></rect><rect width="324" height="324" clip-path="url(&quot;#SvgjsClipPath1814&quot;)" x="1090.91" y="326.02" fill="url(#SvgjsPattern1815)" transform="rotate(164.99, 1252.91, 488.02)"></rect><circle r="46.666666666666664" cx="1142.29" cy="20.39" fill="rgba(255, 255, 255, 1)"></circle><path d="M207.16 309.61L208.54 296.88 221.27 295.43 222.65 282.7 235.37 281.25 236.75 268.52 249.47 267.07M212.84 315.25L214.22 302.52 226.94 301.07 228.32 288.34 241.04 286.89 242.42 274.16 255.15 272.71M218.51 320.89L219.89 308.16 232.61 306.71 233.99 293.98 246.72 292.53 248.09 279.8 260.82 278.35" stroke="rgba(255, 255, 255, 1)" stroke-width="1" stroke-dasharray="3, 2"></path><circle r="73.21766174120847" cx="953.54" cy="261.41" fill="rgba(255, 255, 255, 1)"></circle><path d="M913.48 135.89L901.49 140.39 894.47 129.68 882.48 134.19 875.45 123.48 863.46 127.98 856.44 117.28M915.96 128.28L903.97 132.79 896.95 122.08 884.96 126.58 877.93 115.87 865.95 120.38 858.92 109.67" stroke="rgba(255, 255, 255, 1)" stroke-width="1"></path><rect width="240" height="240" clip-path="url(&quot;#SvgjsClipPath1816&quot;)" x="170.04" y="-86.39" fill="url(#SvgjsPattern1817)" transform="rotate(80.75, 290.04, 33.61)"></rect><path d="M1149.99 61.94a5.6 5.6 0 1 0 9.57 5.81 5.6 5.6 0 1 0-9.57-5.81zM1163.66 70.24a5.6 5.6 0 1 0 9.58 5.81 5.6 5.6 0 1 0-9.58-5.81zM1177.34 78.54a5.6 5.6 0 1 0 9.58 5.81 5.6 5.6 0 1 0-9.58-5.81zM1191.02 86.84a5.6 5.6 0 1 0 9.57 5.82 5.6 5.6 0 1 0-9.57-5.82z" fill="rgba(255, 255, 255, 1)"></path><rect width="360" height="360" clip-path="url(&quot;#SvgjsClipPath1818&quot;)" x="70.11" y="-75.75" fill="url(#SvgjsPattern1819)" transform="rotate(239.64, 250.11, 104.25)"></rect><path d="M478.33000000000004 183.02 L511.74 40.31L434.4196391353779 51.04963913537789z" stroke="rgba(255, 255, 255, 1)" stroke-width="2.56"></path></g><defs><mask id="SvgjsMask1809"><rect width="1440" height="560" fill="#ffffff"></rect></mask><pattern x="0" y="0" width="6" height="6" patternUnits="userSpaceOnUse" id="SvgjsPattern1811"><path d="M3 1L3 5M1 3L5 3" stroke="rgba(255, 255, 255, 1)" fill="none" stroke-width="1"></path></pattern><clipPath id="SvgjsClipPath1810"><circle r="21" cx="827.94" cy="509.8"></circle></clipPath><pattern x="0" y="0" width="6.98" height="6.98" patternUnits="userSpaceOnUse" id="SvgjsPattern1813"><path d="M3.49 1L3.49 5.98M1 3.49L5.98 3.49" stroke="rgba(255, 255, 255, 1)" fill="none" stroke-width="2.2"></path></pattern><clipPath id="SvgjsClipPath1812"><circle r="17.45" cx="1137.9" cy="414.48"></circle></clipPath><pattern x="0" y="0" width="6" height="6" patternUnits="userSpaceOnUse" id="SvgjsPattern1815"><path d="M0 6L3 0L6 6" stroke="rgba(255, 255, 255, 1)" fill="none"></path></pattern><clipPath id="SvgjsClipPath1814"><circle r="81" cx="1252.91" cy="488.02"></circle></clipPath><pattern x="0" y="0" width="6" height="6" patternUnits="userSpaceOnUse" id="SvgjsPattern1817"><path d="M3 1L3 5M1 3L5 3" stroke="rgba(255, 255, 255, 1)" fill="none" stroke-width="1.18"></path></pattern><clipPath id="SvgjsClipPath1816"><circle r="60" cx="290.04" cy="33.61"></circle></clipPath><pattern x="0" y="0" width="6" height="6" patternUnits="userSpaceOnUse" id="SvgjsPattern1819"><path d="M3 1L3 5M1 3L5 3" stroke="rgba(255, 255, 255, 1)" fill="none" stroke-width="1"></path></pattern><clipPath id="SvgjsClipPath1818"><circle r="90" cx="250.11" cy="104.25"></circle></clipPath></defs></svg>